<svg width="405" height="154" viewBox="0 0 405 154" fill="none" xmlns="http://www.w3.org/2000/svg">
<path d="M15.36 138.44C12.82 138.44 11.48 139.92 11.48 142.96V153.24H13.6V149H18.28C21.08 149 22.84 147.28 22.84 143.72C22.84 140.16 21.08 138.44 18.28 138.44H15.36ZM13.6 143.06C13.6 141.24 14.26 140.48 15.98 140.48H18.06C19.9 140.48 20.7 141.44 20.7 143.72C20.7 146 19.9 146.94 18.06 146.94H13.6V143.06ZM25.3872 133.86V149H27.5072V140.48H31.2272C33.4272 140.48 34.4072 141.44 34.4072 143.06V149H36.5472V143.06C36.5472 140.16 34.7872 138.44 31.2272 138.44H27.5072V133.86H25.3872ZM47.8781 138.44L44.2981 146.74H44.0181C43.6181 146.74 43.5181 146.68 43.3781 146.3L40.1981 138.44H37.9581L41.4981 147.32C41.8581 148.24 42.2781 148.62 43.4781 148.62L41.4981 153.24H43.7781L50.1381 138.44H47.8781ZM54.6553 138.44C52.1953 138.44 51.2153 139.62 51.2153 141.52C51.2153 143.14 51.9353 144.6 54.8553 144.6H57.3553C58.4153 144.6 58.8553 144.94 58.8553 145.78C58.8553 146.6 58.4553 146.94 57.4753 146.94H51.3353V149H57.4753C59.9553 149 60.9353 147.68 60.9353 145.8C60.9353 144.16 60.1953 142.82 57.2753 142.82H54.7953C53.6153 142.82 53.2953 142.42 53.2953 141.68C53.2953 140.88 53.6953 140.48 54.6753 140.48H60.5153V138.44H54.6553ZM63.4341 138.44V149H65.5541V138.44H63.4341ZM63.4341 134.46V136.92H65.5741V134.46H63.4341ZM72.6703 138.44C69.8503 138.44 68.0903 140.16 68.0903 143.72C68.0903 147.28 69.8503 149 72.6703 149H78.1103V146.94H72.8703C71.0303 146.94 70.2303 146 70.2303 143.72C70.2303 141.44 71.0303 140.48 72.8703 140.48H78.1103V138.44H72.6703ZM81.0416 138.44V140.48H87.3616C88.5216 140.48 88.9816 141.12 88.9816 141.94V142.74H83.9616C81.3616 142.74 80.4016 143.86 80.4016 145.78C80.4016 147.78 81.4416 149 83.9416 149H88.8816C90.6616 149 91.0616 148.4 91.0616 146.88V141.92C91.0616 139.92 90.0216 138.44 87.3816 138.44H81.0416ZM88.4016 146.94H83.9616C82.9016 146.94 82.4816 146.44 82.4816 145.66C82.4816 144.88 82.8816 144.42 84.0016 144.42H88.9816V146.4C88.9816 146.78 88.8216 146.94 88.4016 146.94ZM94.0591 133.86V149H96.1791V133.86H94.0591ZM103.487 138.44V140.48H104.927V145.36C104.927 148.12 105.867 149 108.047 149H109.947V147.06H108.487C107.487 147.06 107.067 146.66 107.067 145.48V140.48H109.987V138.44H107.067V135.94H104.927V138.44H103.487ZM112.047 133.86V149H114.167V140.48H117.887C120.087 140.48 121.067 141.44 121.067 143.06V149H123.207V143.06C123.207 140.16 121.447 138.44 117.887 138.44H114.167V133.86H112.047ZM129.648 138.44C127.008 138.44 125.968 139.92 125.968 141.92V145.52C125.968 147.52 127.008 149 129.648 149H136.108V146.94H129.648C128.488 146.94 128.028 146.32 128.028 145.48V144.72H133.048C135.648 144.72 136.628 143.62 136.628 141.68C136.628 139.64 135.568 138.44 133.068 138.44H129.648ZM128.028 141.94C128.028 141.12 128.488 140.48 129.648 140.48H133.048C134.088 140.48 134.548 141 134.548 141.8C134.548 142.58 134.128 143.06 132.988 143.06H128.028V141.94ZM142.075 138.44C139.995 138.44 139.215 139.4 139.215 141.52V149H141.335V141.84C141.335 140.92 141.755 140.48 142.695 140.48H146.415V138.44H142.075ZM148.913 138.44V140.48H155.233C156.393 140.48 156.853 141.12 156.853 141.94V142.74H151.833C149.233 142.74 148.273 143.86 148.273 145.78C148.273 147.78 149.313 149 151.813 149H156.753C158.533 149 158.933 148.4 158.933 146.88V141.92C158.933 139.92 157.893 138.44 155.253 138.44H148.913ZM156.273 146.94H151.833C150.773 146.94 150.353 146.44 150.353 145.66C150.353 144.88 150.753 144.42 151.873 144.42H156.853V146.4C156.853 146.78 156.693 146.94 156.273 146.94ZM165.77 138.44C163.23 138.44 161.89 139.92 161.89 142.96V153.24H164.01V149H168.69C171.49 149 173.25 147.28 173.25 143.72C173.25 140.16 171.49 138.44 168.69 138.44H165.77ZM164.01 143.06C164.01 141.24 164.67 140.48 166.39 140.48H168.47C170.31 140.48 171.11 141.44 171.11 143.72C171.11 146 170.31 146.94 168.47 146.94H164.01V143.06ZM184.187 138.44L180.607 146.74H180.327C179.927 146.74 179.827 146.68 179.687 146.3L176.507 138.44H174.267L177.807 147.32C178.167 148.24 178.587 148.62 179.787 148.62L177.807 153.24H180.087L186.447 138.44H184.187Z" fill="#9D8A6C"/>
<path fill-rule="evenodd" clip-rule="evenodd" d="M310 127H326.304V70.8962C329.081 71.5558 330.126 72.4397 330.842 75.165C331.844 77.096 331.933 78.5021 331.611 81.3395C330.641 84.2358 330.649 85.686 331.38 88.0475C332.405 90.5841 333.277 91.7248 335.149 93.4597C337.023 95.5729 338.173 96.5214 340.301 98.0334C342.843 99.8093 344.033 100.671 345.916 102.073C349.497 104.585 351.104 106.043 353.452 108.705C357.343 112.841 359.642 115.344 363.758 119.835C365.994 122.108 367.603 123.646 369.218 124.637C370.833 125.628 370.659 125.537 372.679 126.085C374.7 126.633 386.197 124.946 385.061 124.637C390.804 122.819 392.724 121.841 394.828 120.139C396.647 118.554 397.453 117.56 398.443 115.566C399.518 113.707 399.918 112.729 400.135 111.145C399.777 95.584 398.845 86.8974 396.674 71.4298C397.38 68.727 397.723 67.25 399.751 63.5784C401.699 60.6636 402.767 59.0198 403.211 55.4982L403.204 55.2622V55.262C403.032 49.9831 402.933 46.9512 401.366 41.7009C400.55 36.9432 400.162 34.2625 399.751 29.4283C401.211 27.0432 402.093 25.679 403.827 23.1776C405.532 20.6156 405.422 19.3595 403.211 17.4605C399.289 14.7218 397.578 12.6387 395.444 7.93197C393.961 4.90907 392.772 3.44747 390.06 1.22392C388.951 0.540121 388.328 0.229946 387.215 0.00427105C385.645 -0.0284654 384.92 0.122459 383.831 0.614094C383.831 0.614094 383.384 0.996103 383.523 1.22392C385.205 3.97989 388.138 9.30407 388.907 12.1245C389.676 14.945 391.521 19.4424 391.521 19.4424C392.193 23.8986 391.89 24.0161 391.813 24.8546C391.736 25.6931 391.89 27.4463 386.737 30.2667C386.327 29.9204 369.716 50.771 369.295 50.6958C363.868 53.8617 361.339 56.2592 357.452 61.2915L342.609 71.4298C341.162 70.3988 340.557 69.7216 340.071 68.2283C340.466 67.3191 340.993 67.0156 342.609 66.9324C344.654 65.0781 344.626 64.6451 345.147 63.5784C345.269 61.8451 345.012 60.8377 344.224 59.0047C342.763 56.422 341.792 55.0444 339.532 52.8302C336.832 50.515 335.202 49.3212 331.611 47.7992C328.441 47.5067 327.687 47.7656 326.227 48.1803L310.077 36.1363L310 127ZM391.521 42.6919C378.635 59.9485 371.763 66.8595 359.759 77.2232C365.285 80.7488 366.67 83.5222 366.604 89.6483C369.935 94.7392 372.143 96.6179 376.755 98.0334C378.618 89.3323 379.801 85.149 382.062 78.4428C382.905 75.8502 383.425 74.3448 385.061 70.8962C388.361 62.557 389.35 56.3255 390.764 47.4094C391 45.9194 391.249 44.3543 391.521 42.6919Z" fill="#8D738D"/>
<path d="M86.912 102.224V101.968C86.912 89.936 80.512 83.92 70.144 79.952C76.544 76.368 81.92 70.736 81.92 60.624V60.368C81.92 46.288 70.656 37.2 52.352 37.2H10.752V126.8H53.376C73.6 126.8 86.912 118.608 86.912 102.224ZM62.336 63.952C62.336 70.608 56.832 73.424 48.128 73.424H29.952V54.48H49.408C57.728 54.48 62.336 57.808 62.336 63.696V63.952ZM67.328 99.792C67.328 106.448 62.08 109.52 53.376 109.52H29.952V89.808H52.736C62.848 89.808 67.328 93.52 67.328 99.536V99.792ZM194.391 82V81.744C194.391 56.272 174.551 35.664 146.903 35.664C119.255 35.664 99.159 56.528 99.159 82V82.256C99.159 107.728 118.999 128.336 146.647 128.336C174.295 128.336 194.391 107.472 194.391 82ZM173.783 82.256C173.783 97.616 162.775 110.16 146.903 110.16C131.031 110.16 119.767 97.36 119.767 82V81.744C119.767 66.384 130.775 53.84 146.647 53.84C162.519 53.84 173.783 66.64 173.783 82V82.256ZM287.653 126.8V37.2H267.941V72.656H231.589V37.2H211.877V126.8H231.589V90.832H267.941V126.8H287.653Z" fill="#8D738D"/>
</svg>
